<?xml version="1.0" encoding="UTF-8"?>
<!DOCTYPE svg PUBLIC "-//W3C//DTD SVG 1.1//EN" "http://www.w3.org/Graphics/SVG/1.1/DTD/svg11.dtd">
<!-- Creator: CorelDRAW 2020 (64-Bit) -->
<svg xmlns="http://www.w3.org/2000/svg" xml:space="preserve" width="33px" height="33px" version="1.1" style="shape-rendering:geometricPrecision; text-rendering:geometricPrecision; image-rendering:optimizeQuality; fill-rule:evenodd; clip-rule:evenodd"
viewBox="0 0 32.99 33.42"
 xmlns:xlink="http://www.w3.org/1999/xlink"
 xmlns:xodm="http://www.corel.com/coreldraw/odm/2003">
 <defs>
  <style type="text/css">
   <![CDATA[
    .str0 {stroke:#FFEAA7;stroke-width:3.59;stroke-linecap:round;stroke-linejoin:round;stroke-miterlimit:22.9256}
    .fil0 {fill:none}
   ]]>
  </style>
 </defs>
 <g id="Слой_x0020_1">
  <metadata id="CorelCorpID_0Corel-Layer"/>
  <path class="fil0 str0" d="M30.77 22.42c-0.97,2.26 -2.47,4.26 -4.37,5.82 -1.92,1.55 -4.18,2.61 -6.59,3.09 -2.42,0.48 -4.92,0.36 -7.27,-0.35 -2.36,-0.71 -4.52,-1.98 -6.27,-3.71 -1.74,-1.74 -3.05,-3.87 -3.78,-6.22 -0.74,-2.35 -0.89,-4.85 -0.44,-7.27 0.45,-2.42 1.49,-4.7 3.02,-6.62 1.54,-1.93 3.52,-3.45 5.78,-4.44"/>
  <path id="Vector-1.svg" class="fil0 str0" d="M31.19 16.87c0,-1.98 -0.39,-3.94 -1.15,-5.76 -0.76,-1.84 -1.86,-3.5 -3.27,-4.9 -1.4,-1.4 -3.06,-2.51 -4.89,-3.26 -1.83,-0.76 -3.79,-1.15 -5.77,-1.15l0 15.07 15.08 0 0 0z"/>
 </g>
</svg>
